#!OML:ASF F:\VICON\USERDATA\INSTALL\rory3\rory3.ASF
:FULLY-SPECIFIED
:DEGREES
63
root 0.7910279911766012 17.912247630767943 24.309272910511233 -3.1623503996503732 -1.206402681731198 2.31042959243895
lfemur 0.8399801244845726 -3.2998499025127557 -27.740316787325952
ltibia 22.520084352716133
lfoot -15.155936410025149 3.849214035897588
ltoes 1.4496962653578298
rfemur -28.741676927111108 0.04011890388746764 19.813245514200432
rtibia 53.091815815577476
rfoot -8.924259537489455 -10.20406116304152
rtoes 1.5189580249531978
lowerback 10.243931377740862 0.014288445460076571 -2.7003084335523644
upperback 0.6896925478023319 -0.27240329577007505 0.7475107988891249
thorax -4.969514020854493 -0.06558057438254294 2.3668723706493866
lowerneck -16.510924416223556 -2.663386748119799 -2.4118697432685696
upperneck 20.538465901852074 -3.379962467031391 1.217561183829467
head 9.250030339036904 -1.6350257572305655 0.388440240393804
lclavicle -1.7364145989519369e-15 1.1052408168764682e-15
lhumerus -25.931542885752982 -3.0255262245120393 83.21035806298927
lradius 25.67707294322526
lwrist 5.1051832507761095
lhand -26.77612285435132 24.162918982068017
lfingers 7.12502
lthumb -0.20382314460716272 54.14243012995924
rclavicle -1.7364145989519369e-15 1.1052408168764682e-15
rhumerus -29.375996015065915 -19.08354879667098 -79.42461458094851
rradius 25.419110786895004
rwrist 5.235183866915575
rhand -17.28017548233578 22.510567598774053
rfingers 7.12502
rthumb 8.964867494635357 -7.2757454791994505
64
root 0.7637742579168934 17.886986352615537 25.3608981125804 -2.5037286434448296 -0.5071359930944741 2.8353067083201444
lfemur 4.233263387838173 -2.925056212627446 -28.223997571372866
ltibia 18.6780932633891
lfoot -15.66225706301055 3.439063307853851
ltoes 0.8463285830863305
rfemur -29.64499706028501 1.4125211732061138 18.536088222819316
rtibia 41.606823879232344
rfoot -8.768352561496654 -13.43458962309747
rtoes 0.34959432552478065
lowerback 9.970652077490785 -0.32378938408413116 -3.5024934807317107
upperback 0.635594098061586 -0.8018473025531856 0.7852014190350086
thorax -4.856059097286758 -0.31231488548169317 2.8797925263341297
lowerneck -16.59115513482408 -2.6708284772046085 -2.5030215813884116
upperneck 20.385816705910365 -3.3892526779947265 1.3288647709292354
head 9.2071443260535 -1.635100445431334 0.4367359997532734
lclavicle -1.7758786240033218e-15 1.0697302215089993e-15
lhumerus -23.767791332228224 -4.373998699415284 82.97938632188072
lradius 27.01460829504605
lwrist 6.014820474216206
lhand -26.776156753452067 24.54408391074479
lfingers 7.12502
lthumb -0.2039122348421079 54.521939499676236
rclavicle -1.7758786240033218e-15 1.0697302215089993e-15
rhumerus -29.917718206378524 -19.038919822266664 -79.27952277795524
rradius 25.435668152824995
rwrist 5.075567037408427
rhand -17.189682645956857 22.800067556168067
rfingers 7.12502
rthumb 9.052174398697987 -6.980995181692781
65
root 0.720488829209887 17.850256658287297 26.58584696717984 -1.8225189136352804 0.248117773299096 3.3068349806605544
lfemur 7.8905428058348015 -2.62568217117441 -28.34618982489055
ltibia 14.995976177840614
lfoot -15.725725513370449 2.7496904009566405
ltoes -0.371860906485709
rfemur -29.28560584854777 3.337537418372282 17.16961939417712
rtibia 30.190319009901703
rfoot -8.59209051329145 -16.308906935306958
rtoes -0.6527804966634911
lowerback 9.64027184484964 -0.6038229618684149 -4.159604399981421
upperback 0.5524904387402392 -1.2352012875508454 0.8357087445675898
thorax -4.728080965775217 -0.5149267884855566 3.357847743156557
lowerneck -16.667541684236546 -2.675217656741299 -2.539408097342051
upperneck 20.27790708804413 -3.3988095545324173 1.436376461065581
head 9.182173637722387 -1.6345664470587387 0.4758995938699129
lclavicle -1.6150433204953975e-15 1.2185644048051547e-15
lhumerus -21.795441737725803 -5.263936296013078 82.70870920262685
lradius 28.297892928451603
lwrist 6.857972448137081
lhand -26.82016106684413 24.688800994631027
lfingers 7.12502
lthumb -0.24646156026317306 54.66375509292009
rclavicle -1.6150433204953975e-15 1.2185644048051547e-15
rhumerus -30.41258896986639 -19.36003625977016 -78.92354944029705
rradius 25.191886594789935
rwrist 5.419643813621963
rhand -17.127097595458256 23.138391831025558
rfingers 7.12502
rthumb 9.112562330937727 -6.639839823342081
66
root 0.6607206264899144 17.79570586425204 27.292181913788262 -1.3081475306786388 0.9059669659448142 3.560925422081254
lfemur 10.973557583281941 -2.660611676496573 -28.31000541567169
ltibia 12.404786590246044
lfoot -15.650180305323516 1.8128171231845422
ltoes -2.4891991985858803
rfemur -28.587137567185817 5.017401490966561 16.105518189535125
rtibia 21.67239887159019
rfoot -8.756777366848134 -17.589746803221054
rtoes -1.9110528943215974
lowerback 9.375479561102065 -0.8455269739847643 -4.6546498335249105
upperback 0.47414795247956487 -1.5972729900735394 0.9063505295353165
thorax -4.63315167470769 -0.6854654718244819 3.7179388789968675
lowerneck -16.75064639743317 -2.684704644891713 -2.565885707220043
upperneck 20.234036969632562 -3.4155728357408335 1.5041975004452421
head 9.180421882585895 -1.6380936997954405 0.4972710197597259
lclavicle -1.6287726989173304e-15 1.2061511006228533e-15
lhumerus -20.33422922967228 -5.808623014792631 82.4961071965529
lradius 29.3278829499534
lwrist 7.409390361156237
lhand -27.058532149772788 24.30350593912581
lfingers 7.12502
lthumb -0.47669542282616106 54.27548543272385
rclavicle -1.6287726989173304e-15 1.2061511006228535e-15
rhumerus -30.92004992160871 -20.132552675755655 -78.42463927752323
rradius 24.66041405462603
rwrist 6.068197346140266
rhand -17.182293288718487 23.30997549210296
rfingers 7.12502
rthumb 9.059306280792654 -6.470778628666438
67
root 0.5894872507142133 17.729895220757953 27.74613447542479 -1.0586865001456363 1.4023270049743024 3.5335004553848957
lfemur 13.379728717194858 -3.1377946736300597 -28.163428576320776
ltibia 11.600399843461517
lfoot -15.360586552732624 0.7388797066273658
ltoes -5.506881757231664
rfemur -28.248254183236863 5.835315265067907 15.83228751480622
rtibia 17.65053494095392
rfoot -8.76945168425484 -16.73643933026324
rtoes -3.064617088006863
lowerback 9.240917389957803 -1.0545677047859239 -4.910072132446372
upperback 0.43112922199077586 -1.8908003879406676 1.036056870295268
thorax -4.583790707558216 -0.8255391834637285 3.970127832908137
lowerneck -16.841676860729546 -2.6922557330437473 -2.5952814322975692
upperneck 20.242028274244934 -3.424329064807525 1.5003336847773463
head 9.19583405140104 -1.6409758730028552 0.49621427895653436
lclavicle -1.7828319322291954e-15 1.0640984500515355e-15
lhumerus -19.38049480662535 -6.040739478416481 82.39309315280107
lradius 30.074951001160258
lwrist 7.65271984987651
lhand -27.58033633573373 23.467956833268747
lfingers 7.12502
lthumb -0.9806241683129204 53.436626861714146
rclavicle -1.7828319322291954e-15 1.0640984500515355e-15
rhumerus -31.474316784071753 -21.32513848496331 -77.74921857608975
rradius 23.89116987048797
rwrist 7.006419729555275
rhand -17.340575379654968 23.219698376752692
rfingers 7.12502
rthumb 8.906583707188778 -6.568109418351447
68
root 0.5206718615354271 17.674436469031946 28.72833759322038 -1.0458579103196528 1.7505713104934641 3.2645645067341076
lfemur 15.34242758787147 -3.888237304619966 -27.671116678382926
ltibia 13.361148304461082
lfoot -14.168723192923242 -0.4661864369132523
ltoes -8.990422227613438
rfemur -28.032671483908455 5.803407553038934 16.6713309699105
rtibia 18.39990210729199
rfoot -7.785680484414944 -13.91326166711519
rtoes -3.3203608271904588
lowerback 9.241241995112945 -1.1893028874708804 -4.728567416780628
upperback 0.4330079893757562 -2.0400882951591517 1.2703808211476677
thorax -4.568462604924431 -0.9016647424403976 4.152711174337086
lowerneck -16.915624259775004 -2.6738539676395185 -2.601019807772798
upperneck 20.319603333584656 -3.3857283881569415 1.4126116383928624
head 9.231882848957946 -1.6289310743347913 0.47590922912927014
lclavicle -1.6029033056610345e-15 1.2296059157300531e-15
lhumerus -18.835129584182937 -5.8034926477276905 82.4773648180137
lradius 30.67343676612981
lwrist 7.761122204187353
lhand -28.24434020556048 22.553580465168945
lfingers 7.12502
lthumb -1.6218659558634683 52.51833343614484
rclavicle -1.6029033056610345e-15 1.2296059157300531e-15
rhumerus -32.00400906787066 -22.718246880338345 -76.81612446812082
rradius 23.031592381472336
rwrist 8.367507579998618
rhand -17.50227825295643 23.016768124181663
rfingers 7.12502
rthumb 8.750563714805315 -6.779593660691833
69
root 0.4473480890442547 17.6445339232916 29.48120590801914 -1.2532884490277978 1.7856061690974938 2.5389346667121386
lfemur 15.999404346752264 -4.736174197922699 -26.852970326375356
ltibia 17.06651449486948
lfoot -11.647885331048784 -2.3991776944059
ltoes -12.437066498577792
rfemur -28.070948774958683 5.249496411184889 18.228902315398347
rtibia 21.677117138561268
rfoot -6.175064656565771 -10.357238055920984
rtoes -2.251115918588417
lowerback 9.285954456176878 -1.2994937228649035 -4.1909799824714735
upperback 0.4389706037282018 -2.113839349655632 1.577221736008857
thorax -4.594963847339445 -0.9464075934198644 4.143720993377503
lowerneck -16.951375224668578 -2.623727982648409 -2.585046090301276
upperneck 20.4467104013002 -3.2938700829039202 1.2055554421010715
head 9.272867918303213 -1.5998503120345318 0.4265334873702391
lclavicle -1.7003343559919533e-15 1.1398987493640981e-15
lhumerus -19.0145477220619 -5.223222513995502 82.68578178856373
lradius 30.994316130160797
lwrist 7.746191523787777
lhand -28.894538861517688 21.842694263141254
lfingers 7.12502
lthumb -2.2497744295679416 51.803349826910726
rclavicle -1.7003343559919533e-15 1.1398987493640981e-15
rhumerus -32.621028813863035 -24.378803416389555 -75.77212549393926
rradius 22.07617758285744
rwrist 9.940494802624382
rhand -17.64897361652239 22.739140551495343
rfingers 7.12502
rthumb 8.609018176045673 -7.063929915789446
70
root 0.3716017371708302 17.652149274110343 29.785749332661595 -1.6305038228550877 1.5494557670308984 1.3762660574064092
lfemur 14.906960106851976 -5.344041904749897 -25.596628798505122
ltibia 22.617523900627948
lfoot -7.282326880174497 -5.377675049709821
ltoes -14.442742218666524
rfemur -27.930096653522455 4.6533011317989885 20.102356407152026
rtibia 25.464774631218866
rfoot -4.737913828908454 -7.215979442026334
rtoes 0.17019020156836984
lowerback 9.33292419192815 -1.3900846213268125 -3.3491077805759826
upperback 0.42030624557333046 -2.123016946465411 1.9220704778162085
thorax -4.663528441809451 -0.9643733024265808 3.924405893363074
lowerneck -16.903606892260104 -2.5540411270149073 -2.54821796108086
upperneck 20.604512866740393 -3.1718915252161533 0.9210349351009958
head 9.302983058706943 -1.5614207212386184 0.3584200160051858
lclavicle -2.134521952324353e-15 7.402037168547852e-16
lhumerus -19.97200248811898 -4.410054310815239 82.96221283903989
lradius 31.009663824983786
lwrist 7.63133604969615
lhand -29.216402060234977 21.58543813946418
lfingers 7.12502
lthumb -2.5605962011202097 51.543581271497665
rclavicle -2.1345219523243525e-15 7.402037168547851e-16
rhumerus -33.28018102033951 -26.08145094308825 -74.782569463821
rradius 21.158903271623437
rwrist 11.406648511318178
rhand -17.764379126345567 22.407306889706895
rfingers 7.12502
rthumb 8.497655571431252 -7.39982667988945
